<svg width="19" height="18" viewBox="0 0 19 18" fill="none" xmlns="http://www.w3.org/2000/svg">
<g clip-path="url(#clip0_10524_3085)">
<path d="M11.3047 6V4.5C11.3047 4.10218 11.1467 3.72064 10.8653 3.43934C10.584 3.15804 10.2025 3 9.80469 3H4.55469C4.15686 3 3.77533 3.15804 3.49403 3.43934C3.21272 3.72064 3.05469 4.10218 3.05469 4.5V13.5C3.05469 13.8978 3.21272 14.2794 3.49403 14.5607C3.77533 14.842 4.15686 15 4.55469 15H9.80469C10.2025 15 10.584 14.842 10.8653 14.5607C11.1467 14.2794 11.3047 13.8978 11.3047 13.5V12" stroke="currentColor" stroke-width="1.5" stroke-linecap="round" stroke-linejoin="round"/>
<path d="M7.55469 9H16.5547L14.3047 6.75" stroke="currentColor" stroke-width="1.5" stroke-linecap="round" stroke-linejoin="round"/>
<path d="M14.3047 11.25L16.5547 9" stroke="currentColor" stroke-width="1.5" stroke-linecap="round" stroke-linejoin="round"/>
</g>
</svg>
