<svg width="52" height="52" viewBox="0 0 52 52" fill="none" xmlns="http://www.w3.org/2000/svg">
<path d="M0 8C0 3.58172 3.58172 0 8 0H44C48.4183 0 52 3.58172 52 8V44C52 48.4183 48.4183 52 44 52H8C3.58172 52 0 48.4183 0 44V8Z" fill="#00B289" fill-opacity="0.1"/>
<g clip-path="url(#clip0_10511_2947)">
<path d="M26.014 13.5156C26.9862 13.5157 27.9252 13.8698 28.6552 14.5119L28.8477 14.6931L29.7202 15.5656C29.9597 15.8035 30.2724 15.9537 30.6077 15.9919L30.7765 16.0019H32.0265C33.048 16.0018 34.0308 16.3926 34.7734 17.094C35.5161 17.7955 35.9621 18.7545 36.0202 19.7744L36.0265 20.0019V21.2519C36.0265 21.5894 36.1415 21.9181 36.349 22.1806L36.4615 22.3056L37.3327 23.1781C38.0549 23.8962 38.476 24.8626 38.5101 25.8805C38.5443 26.8983 38.1889 27.8908 37.5165 28.6556L37.3352 28.8481L36.4627 29.7206C36.2249 29.9601 36.0747 30.2728 36.0365 30.6081L36.0265 30.7769V32.0269C36.0266 33.0484 35.6358 34.0312 34.9343 34.7738C34.2329 35.5164 33.2739 35.9625 32.254 36.0206L32.0265 36.0269H30.7765C30.4395 36.027 30.1123 36.1406 29.8477 36.3494L29.7227 36.4619L28.8502 37.3331C28.1322 38.0553 27.1657 38.4763 26.1479 38.5105C25.1301 38.5446 24.1376 38.1893 23.3727 37.5169L23.1802 37.3356L22.3077 36.4631C22.0683 36.2252 21.7556 36.0751 21.4202 36.0369L21.2515 36.0269H20.0015C18.98 36.0269 17.9971 35.6362 17.2545 34.9347C16.5119 34.2332 16.0658 33.2742 16.0077 32.2544L16.0015 32.0269V30.7769C16.0014 30.4399 15.8878 30.1127 15.679 29.8481L15.5665 29.7231L14.6952 28.8506C13.9731 28.1326 13.552 27.1661 13.5179 26.1483C13.4837 25.1305 13.8391 24.138 14.5115 23.3731L14.6927 23.1806L15.5652 22.3081C15.8031 22.0687 15.9533 21.756 15.9915 21.4206L16.0015 21.2519V20.0019L16.0077 19.7744C16.0636 18.7937 16.4783 17.8678 17.1729 17.1732C17.8674 16.4787 18.7933 16.0639 19.774 16.0081L20.0015 16.0019H21.2515C21.5885 16.0018 21.9157 15.8882 22.1802 15.6794L22.3052 15.5669L23.1777 14.6956C23.5494 14.3217 23.9913 14.025 24.4781 13.8225C24.9648 13.62 25.4868 13.5157 26.014 13.5156ZM30.6352 22.6181C30.4008 22.3838 30.0829 22.2521 29.7515 22.2521C29.42 22.2521 29.1022 22.3838 28.8677 22.6181L24.7515 26.7331L23.1352 25.1181L23.0177 25.0144C22.7665 24.8201 22.4507 24.7288 22.1346 24.7589C21.8184 24.789 21.5256 24.9383 21.3156 25.1765C21.1055 25.4147 20.994 25.724 21.0037 26.0414C21.0134 26.3588 21.1436 26.6607 21.3677 26.8856L23.8677 29.3856L23.9852 29.4894C24.2257 29.6759 24.5261 29.7683 24.8298 29.7492C25.1336 29.7301 25.42 29.6008 25.6352 29.3856L30.6352 24.3856L30.739 24.2681C30.9256 24.0276 31.018 23.7273 30.9989 23.4235C30.9798 23.1197 30.8505 22.8334 30.6352 22.6181Z" fill="#00B289"/>
</g>
</svg>
