<svg width="19" height="18" viewBox="0 0 19 18" fill="none" xmlns="http://www.w3.org/2000/svg">
<g clip-path="url(#clip0_10511_2839)">
<path d="M15.8047 8.25051C15.6213 6.93068 15.009 5.70776 14.0622 4.77013C13.1153 3.83251 11.8865 3.2322 10.5649 3.06168C9.24338 2.89115 7.9024 3.15987 6.74859 3.82645C5.59477 4.49302 4.69212 5.52046 4.17969 6.75051M3.80469 3.75051V6.75051H6.80469" stroke="currentColor" stroke-width="1.5" stroke-linecap="round" stroke-linejoin="round"/>
<path d="M3.80469 9.75C3.98811 11.0698 4.60039 12.2928 5.54721 13.2304C6.49403 14.168 7.72287 14.7683 9.04443 14.9388C10.366 15.1094 11.707 14.8406 12.8608 14.1741C14.0146 13.5075 14.9173 12.48 15.4297 11.25M15.8047 14.25V11.25H12.8047" stroke="currentColor" stroke-width="1.5" stroke-linecap="round" stroke-linejoin="round"/>
<path d="M9.05469 9C9.05469 9.19891 9.13371 9.38968 9.27436 9.53033C9.41501 9.67098 9.60578 9.75 9.80469 9.75C10.0036 9.75 10.1944 9.67098 10.335 9.53033C10.4757 9.38968 10.5547 9.19891 10.5547 9C10.5547 8.80109 10.4757 8.61032 10.335 8.46967C10.1944 8.32902 10.0036 8.25 9.80469 8.25C9.60578 8.25 9.41501 8.32902 9.27436 8.46967C9.13371 8.61032 9.05469 8.80109 9.05469 9Z" stroke="currentColor" stroke-width="1.5" stroke-linecap="round" stroke-linejoin="round"/>
</g>
</svg>
